<svg version="1.1" id="Layer_1" xmlns="http://www.w3.org/2000/svg" xmlns:xlink="http://www.w3.org/1999/xlink" x="0px" y="0px"
	 width="100%" viewBox="0 0 750 228" enable-background="new 0 0 750 228" xml:space="preserve">
<path fill="#010101" opacity="1.000000" stroke="none" 
	d="
M499.000000,229.000000 
	C332.666687,229.000000 166.833374,229.000000 1.000045,229.000000 
	C1.000030,153.000031 1.000030,77.000061 1.000015,1.000065 
	C250.999939,1.000043 500.999878,1.000043 750.999878,1.000022 
	C750.999878,76.999931 750.999878,152.999863 750.999939,228.999908 
	C667.166687,229.000000 583.333313,229.000000 499.000000,229.000000 
M204.500000,7.000823 
	C148.180435,7.012753 91.860832,7.064890 35.541389,6.989210 
	C27.913950,6.978960 21.615511,9.453599 16.347586,14.933414 
	C10.495251,21.021147 9.015936,28.493134 9.020370,36.546585 
	C9.037704,68.038895 8.936244,99.531487 9.041828,131.023438 
	C9.095427,147.010056 9.068542,163.016953 9.867640,178.975128 
	C10.574791,193.097092 21.866673,203.008392 36.027603,203.024414 
	C59.188435,203.050613 82.349342,202.995407 105.510208,203.002563 
	C148.665848,203.015900 191.821518,203.083618 234.977127,203.055466 
	C249.673172,203.045868 260.980042,191.760941 260.988586,177.203064 
	C261.016663,129.381378 261.018677,81.559662 260.988159,33.737988 
	C260.977936,17.724377 250.386780,7.078793 234.492920,7.008830 
	C224.828781,6.966290 215.164322,7.000880 204.500000,7.000823 
M608.003723,176.500137 
	C608.018433,183.330719 608.046570,190.161316 608.042664,196.991882 
	C608.040344,201.079010 609.882568,203.227295 614.133057,203.016602 
	C615.461914,202.950729 616.809021,202.920334 618.128479,203.058136 
	C621.747070,203.436096 623.189453,202.070786 623.075073,198.260529 
	C622.835205,190.270676 622.926758,182.267609 623.031372,174.271912 
	C623.096802,169.270233 625.343506,167.040497 629.922485,167.005615 
	C634.311707,166.972183 635.951965,168.846283 635.992371,174.169281 
	C636.049377,181.666046 636.062012,189.163605 636.021362,196.660446 
	C635.998291,200.930328 637.734802,203.299957 642.289062,203.020508 
	C643.616150,202.939087 644.966064,202.914841 646.284058,203.059494 
	C650.085876,203.476746 651.165649,201.720688 651.067749,198.098923 
	C650.847290,189.940933 651.093933,181.770950 650.920166,173.610764 
	C650.827332,169.248825 652.553589,167.015640 656.989746,166.999252 
	C661.543884,166.982422 663.058472,169.539108 663.021606,173.718582 
	C662.954163,181.381592 663.061462,189.045990 663.022949,196.709442 
	C663.001282,201.016159 664.830261,203.288269 669.344666,203.024124 
	C671.004456,202.927002 672.859924,203.480591 674.290039,202.903885 
	C675.742432,202.318253 677.809631,200.729675 677.838745,199.537186 
	C678.098633,188.881973 678.256775,178.206329 677.855896,167.558868 
	C677.554504,159.555313 671.437805,154.026459 663.400269,154.001801 
	C660.130188,153.991791 656.866699,154.986420 653.582703,155.376846 
	C650.978271,155.686478 648.110779,156.539429 645.770569,155.818527 
	C637.482788,153.265472 629.554077,152.581268 621.781921,158.339645 
	C621.199585,156.575272 620.776611,155.293915 620.348755,153.997589 
	C617.670288,153.997589 615.314331,154.227112 613.020569,153.946945 
	C608.986511,153.454193 607.706604,155.045319 607.923096,159.010361 
	C608.222351,164.492142 608.002075,170.002274 608.003723,176.500137 
M478.797028,157.096313 
	C475.609528,160.988876 470.916534,164.436859 469.603546,168.882980 
	C467.836761,174.865997 467.624512,181.786362 468.615387,188.006454 
	C470.714294,201.183029 483.026428,207.143295 495.438507,201.892456 
	C496.395294,201.487701 497.456970,201.330734 498.732635,200.988022 
	C499.701660,206.197052 497.556793,209.519882 493.343597,210.670456 
	C489.614868,211.688721 485.510529,211.674454 481.590942,211.544678 
	C478.339813,211.437073 475.116211,210.497391 471.371216,209.836472 
	C471.187469,212.560287 470.892090,214.848068 470.911865,217.133118 
	C470.942200,220.625870 472.735291,222.824173 476.307922,223.056442 
	C481.613190,223.401337 486.959259,224.013382 492.238159,223.692337 
	C505.667694,222.875641 513.358215,216.005829 514.256287,202.680008 
	C515.216553,188.431213 514.953918,174.091797 514.883972,159.793610 
	C514.876404,158.250763 512.797546,155.614380 511.348694,155.358566 
	C500.670776,153.473221 489.925995,152.399338 478.797028,157.096313 
M452.433044,122.961632 
	C446.245178,127.478050 439.519592,126.140274 432.752441,124.870537 
	C430.767883,124.498169 428.079132,122.364189 427.049225,126.123154 
	C425.491211,131.809433 427.028046,136.376419 430.851776,136.788956 
	C436.627258,137.412064 442.549988,138.312378 448.250671,137.673050 
	C464.030365,135.903336 470.394562,128.844818 470.047211,114.183243 
	C469.739716,101.203690 469.848145,88.206192 470.145264,75.225136 
	C470.239380,71.112305 468.577271,69.225060 464.910461,69.008919 
	C457.955109,68.598930 450.909119,67.740791 444.033630,68.417969 
	C433.143463,69.490547 426.097076,76.193306 424.432800,86.629967 
	C423.634338,91.636856 423.639587,97.030891 424.576172,102.005745 
	C427.138153,115.614487 439.156128,121.331444 451.802704,115.501022 
	C452.494629,115.182014 453.313843,115.138977 455.686249,114.603615 
	C454.543427,117.899925 453.761139,120.156364 452.433044,122.961632 
M344.249237,100.154503 
	C346.909515,100.104691 349.570190,99.997551 352.230042,100.014725 
	C365.690826,100.101646 363.915894,98.783836 368.118256,111.251953 
	C370.162537,117.317207 377.738708,120.500046 383.499329,117.707672 
	C384.241852,117.347748 384.914276,115.452187 384.636261,114.582024 
	C378.379486,94.999382 372.072632,75.430954 365.461914,55.966270 
	C364.889740,54.281532 362.267303,52.511692 360.373413,52.216255 
	C356.134735,51.555042 351.754700,51.803211 347.432465,51.673225 
	C343.364929,51.550900 340.905975,53.409225 339.910767,57.418716 
	C338.872955,61.599953 337.741486,65.766754 336.433655,69.870605 
	C331.356140,85.803360 326.192169,101.708557 321.040100,117.686913 
	C335.210754,118.974678 335.547211,118.686768 339.828278,105.939598 
	C340.512024,103.903709 342.196014,102.203743 344.249237,100.154503 
M358.847992,154.365463 
	C352.066681,152.312210 345.846527,153.321564 340.235382,158.465881 
	C338.353790,152.001419 333.469086,153.343475 329.508789,153.787659 
	C325.414124,154.246857 326.248901,158.163574 326.045959,161.007690 
	C325.868622,163.492264 325.999817,165.998932 325.996674,168.495850 
	C325.976196,184.808914 325.957306,201.121979 325.935120,217.435043 
	C325.931580,220.028030 325.993408,222.427734 329.427704,223.024246 
	C338.298370,224.565018 340.978882,222.426163 341.003815,213.529526 
	C341.029602,204.339996 341.029572,204.340012 350.487305,203.991364 
	C360.790924,203.611542 368.695587,198.123016 371.073273,188.341919 
	C372.411804,182.835617 372.555908,176.851578 372.162903,171.156952 
	C371.614410,163.209671 367.034088,157.681030 358.847992,154.365463 
M537.163940,68.948311 
	C536.498962,68.978294 535.811340,69.133659 535.172607,69.018417 
	C530.076782,68.099113 528.679016,70.182373 528.873718,75.238991 
	C529.283264,85.874451 528.990051,96.536652 529.001038,107.187866 
	C529.011902,117.723717 529.609619,118.163712 539.914795,118.149925 
	C543.744629,118.144806 545.239136,117.099869 545.090881,113.022697 
	C544.788696,104.712242 544.742310,96.370888 545.159058,88.070793 
	C545.265747,85.946053 547.008179,82.952103 548.837524,82.041130 
	C554.637756,79.152794 558.643433,81.738205 558.885681,88.303123 
	C559.174133,96.115189 559.043457,103.943924 559.032898,111.765350 
	C559.027039,116.068382 560.892700,118.322464 565.386108,118.046524 
	C566.877991,117.954910 568.386475,117.948715 569.876709,118.054466 
	C572.787964,118.261063 574.123657,117.169701 574.077332,114.064697 
	C573.920593,103.582184 574.067444,93.094284 573.841736,82.613960 
	C573.693298,75.720161 570.122681,71.119278 563.515564,68.904343 
	C556.366028,66.507553 549.844666,68.312302 544.512085,71.413391 
	C541.853943,70.390266 539.942200,69.654434 537.163940,68.948311 
M687.910522,117.850708 
	C688.919128,116.522621 690.776733,115.210335 690.801819,113.863968 
	C690.996948,103.376884 691.252747,92.860039 690.665955,82.398613 
	C690.152954,73.253899 683.508057,67.471489 674.259033,67.962814 
	C669.450317,68.218262 664.728394,70.108391 661.033325,71.002235 
	C658.432312,70.193619 656.567139,69.127258 654.694763,69.114342 
	C645.704773,69.052338 645.946228,67.004974 645.989502,77.856201 
	C646.030090,88.017212 645.982910,98.178535 646.003540,108.339668 
	C646.022278,117.576385 646.685608,118.013260 656.006592,118.124756 
	C660.036255,118.172958 661.199829,116.782326 661.079956,112.881256 
	C660.829407,104.727066 660.862854,96.555275 661.082642,88.398880 
	C661.210571,83.651237 664.512878,80.970520 669.374573,81.010033 
	C673.840576,81.046326 675.854736,83.211983 675.960022,88.521896 
	C676.082153,94.682838 675.953796,100.848297 676.006897,107.011169 
	C676.107300,118.661026 674.487366,118.124802 687.910522,117.850708 
M413.874756,181.322479 
	C414.812225,194.035980 419.722473,201.500885 429.615479,203.246964 
	C435.061890,204.208237 441.056976,204.324005 446.369446,203.031647 
	C450.291107,202.077621 454.378540,198.877411 456.862671,195.539658 
	C462.356689,188.157913 462.450745,179.393707 460.560974,170.666321 
	C458.135620,159.465668 450.287689,153.687912 438.097504,153.888046 
	C423.374451,154.129761 416.476624,159.111053 414.249847,171.424164 
	C413.722351,174.340805 413.948181,177.393692 413.874756,181.322479 
M688.921753,180.484726 
	C684.216980,186.665909 683.793762,191.043091 687.331787,196.928406 
	C692.022522,204.731110 702.087280,207.117065 709.996155,202.491714 
	C711.379272,201.682846 713.295105,201.343063 714.912903,201.466721 
	C718.568665,201.746170 722.182129,202.571838 725.837769,202.869339 
	C726.488403,202.922287 727.893555,201.487854 727.879700,200.760559 
	C727.652039,188.798080 727.628662,176.809906 726.710815,164.892853 
	C726.331116,159.962555 722.284790,156.153122 717.370972,155.682541 
	C708.876892,154.869080 700.199890,154.406067 691.750183,155.269547 
	C686.621277,155.793686 689.271118,161.353333 689.172058,164.587265 
	C689.063538,168.131332 691.996704,166.527420 694.009705,166.417145 
	C698.753235,166.157288 703.578369,165.533112 708.234985,166.123947 
	C711.993164,166.600769 713.356567,169.786346 712.538635,173.760849 
	C704.348755,174.657333 695.787842,173.358566 688.921753,180.484726 
M571.604797,204.060120 
	C575.193604,203.137817 578.766907,202.146591 582.380310,201.333649 
	C583.518921,201.077454 584.780640,201.175751 585.959045,201.324936 
	C589.722595,201.801453 593.464905,202.487274 597.239563,202.787735 
	C597.753784,202.828674 598.929932,201.127670 598.914551,200.248718 
	C598.719177,189.118546 598.780518,177.953781 597.791077,166.885925 
	C597.492493,163.545242 594.911438,159.304657 592.084045,157.497925 
	C583.068359,151.736801 572.864929,153.546768 563.023315,155.082153 
	C560.127686,155.533890 558.343628,161.884521 560.334351,165.028290 
	C561.047241,166.154175 564.135986,165.962097 566.152893,166.037643 
	C570.568542,166.203018 575.103271,165.569565 579.377441,166.380020 
	C582.763489,167.022064 584.954895,169.752289 583.427612,173.632690 
	C578.618164,174.110275 574.105896,174.208939 569.747864,175.079529 
	C564.294189,176.169006 559.142883,178.086426 556.987183,184.105042 
	C553.264038,194.500122 558.915955,202.736389 571.604797,204.060120 
M513.315308,98.006493 
	C516.148438,97.128746 520.545715,97.087990 521.541443,95.227074 
	C525.659058,87.532120 518.836609,71.904221 510.117065,69.268837 
	C496.819672,65.249855 481.582703,68.234131 478.517487,86.755470 
	C477.550720,92.597267 478.716827,98.979584 479.863861,104.930023 
	C480.973022,110.684097 485.231781,114.244339 490.823181,116.159462 
	C500.443420,119.454483 510.052185,118.271370 519.655396,116.683495 
	C519.655396,112.721138 519.655396,109.151413 519.655396,105.521118 
	C501.960419,108.694031 495.078033,106.639885 494.388916,98.006554 
	C500.385773,98.006554 506.370850,98.006554 513.315308,98.006493 
M718.816223,117.808990 
	C721.272888,116.913979 723.729614,116.018967 726.281555,115.089241 
	C726.720520,115.554939 727.118530,116.377022 727.623718,116.449272 
	C731.262695,116.969673 734.947388,117.683281 738.554626,117.432190 
	C739.193909,117.387695 739.913696,113.131233 739.954468,110.808525 
	C740.111938,101.827660 740.098999,92.841011 739.976257,83.858887 
	C739.875183,76.463936 735.520203,70.340042 728.326477,69.094803 
	C722.189575,68.032516 715.773315,67.997787 709.523743,68.326912 
	C702.301147,68.707283 701.871155,69.797562 701.898804,76.955811 
	C701.913757,80.820045 703.385193,81.272430 706.835693,80.588806 
	C710.525330,79.857803 714.390869,79.815529 718.178528,79.827820 
	C723.258240,79.844292 725.384155,82.838417 725.525330,87.259102 
	C719.320740,88.345474 713.297119,88.836258 707.633911,90.531204 
	C700.171753,92.764587 697.168396,98.438705 698.058472,106.471703 
	C698.780762,112.990730 703.497375,117.289780 710.991882,118.015968 
	C713.289673,118.238617 715.633911,117.982430 718.816223,117.808990 
M615.107422,73.589256 
	C615.657898,69.164925 613.071350,68.791313 609.585693,69.025131 
	C601.881836,69.541901 601.748108,69.303268 601.913391,61.562737 
	C601.979126,58.483055 601.924194,55.400803 601.924194,52.029846 
	C599.671021,52.029846 598.166992,52.202297 596.715637,51.998932 
	C591.440063,51.259708 588.839905,52.395256 588.430298,58.778271 
	C587.812256,68.411224 587.129517,68.367416 578.993530,69.626976 
	C578.993530,71.815102 579.166260,74.114944 578.952820,76.378372 
	C578.636292,79.734627 579.601624,81.598015 583.329956,80.999924 
	C586.341736,80.516800 587.081421,82.175240 587.046204,84.786667 
	C586.972229,90.282410 586.983154,95.779678 587.001099,101.276184 
	C587.037170,112.306999 592.450134,117.738853 603.577332,117.950974 
	C615.946045,118.186752 615.946045,118.186760 614.662170,105.083817 
	C613.708679,105.289070 612.786926,105.525032 611.852051,105.682739 
	C605.010254,106.836983 601.878601,104.092110 601.961060,97.056274 
	C601.998108,93.893089 602.057861,90.728325 601.999695,87.566254 
	C601.879944,81.056496 601.857605,80.828529 608.556458,81.044868 
	C613.428772,81.202217 615.901978,79.649635 615.107422,73.589256 
M421.024597,70.908592 
	C420.532043,67.873428 418.407990,67.072426 415.885498,67.746155 
	C411.948425,68.797722 408.117554,70.247055 404.241699,71.527840 
	C401.320282,70.034698 398.037567,69.663582 394.798492,69.058807 
	C390.874084,68.326073 389.873566,70.155518 389.917969,73.721405 
	C390.052795,84.536911 389.994446,95.354897 389.998474,106.171921 
	C390.003082,118.427620 389.994812,118.319725 402.102509,118.072914 
	C405.264923,118.008438 406.091095,116.816353 406.043945,113.908852 
	C405.917114,106.089264 405.961121,98.265999 406.013275,90.444702 
	C406.054596,84.246994 408.161072,82.176186 414.451324,82.008293 
	C416.529816,81.952812 418.611053,81.999542 421.135773,81.999542 
	C421.135773,78.103043 421.135773,74.962692 421.024597,70.908592 
M380.027008,174.500626 
	C380.017273,180.831650 379.990143,187.162704 380.001953,193.493683 
	C380.019073,202.674942 380.705780,203.118347 390.075043,203.158752 
	C394.144531,203.176300 395.225372,201.713196 395.079895,197.861465 
	C394.815918,190.874435 394.849915,183.864258 395.076630,176.874023 
	C395.285614,170.430313 399.906555,166.161774 405.816223,167.412979 
	C410.535522,168.412125 411.452393,166.677902 411.017334,162.660828 
	C410.874725,161.343948 410.855988,159.977539 411.035278,158.668671 
	C411.577057,154.713867 409.494171,153.301498 406.081055,154.012970 
	C401.964050,154.871185 397.961823,156.280014 393.522217,157.562515 
	C393.240662,156.652374 392.839813,155.356476 392.414185,153.980637 
	C389.763885,153.980637 387.413025,154.197617 385.117828,153.932556 
	C381.129364,153.471970 379.696289,155.090118 379.892456,159.009781 
	C380.133698,163.830368 379.998596,168.669785 380.027008,174.500626 
M553.150330,154.108917 
	C547.957825,155.048096 542.765381,155.987289 537.481812,156.942932 
	C537.031006,156.351425 536.293152,154.379562 535.231506,154.186295 
	C532.493591,153.687790 529.561523,153.660660 526.813721,154.105179 
	C525.719421,154.282211 524.099487,156.189178 524.087891,157.322586 
	C523.948730,170.945892 524.014954,184.572342 524.156677,198.196640 
	C524.189148,201.321472 525.992249,203.059677 529.265991,203.023895 
	C531.093201,203.003922 532.928528,202.941498 534.747070,203.075653 
	C537.972778,203.313629 539.151733,201.964111 539.059143,198.708023 
	C538.870239,192.066223 538.962585,185.414993 539.012207,178.768188 
	C539.076599,170.129852 542.872986,166.792526 551.367676,167.524673 
	C552.507874,167.622940 554.776245,166.603668 554.771606,166.118530 
	C554.734924,162.248795 554.275879,158.383072 553.150330,154.108917 
M636.000977,105.452927 
	C636.000488,96.488815 636.014587,87.524681 635.995361,78.560608 
	C635.975891,69.460159 635.386414,69.111931 626.491699,68.867767 
	C622.047913,68.745789 620.802124,70.238701 620.901245,74.581131 
	C621.173828,86.527092 620.981506,98.483299 621.006531,110.435379 
	C621.022034,117.847252 621.201416,118.000519 628.507080,117.999878 
	C635.780090,117.999245 635.945068,117.833679 635.997986,110.416283 
	C636.007507,109.088333 636.000427,107.760262 636.000977,105.452927 
M631.067017,62.922863 
	C631.695312,62.720436 632.359497,62.591217 632.946289,62.303970 
	C637.471558,60.088551 639.193665,56.435814 637.753479,52.184986 
	C636.352051,48.048695 631.765137,46.002094 626.085083,46.978745 
	C621.939880,47.691483 619.645447,50.690346 619.839172,55.142223 
	C620.080078,60.679111 622.293640,62.344589 631.067017,62.922863 
z"/>
<path fill="#FFFFFF" opacity="1.000000" stroke="none" 
	d="
M205.000000,7.000823 
	C215.164322,7.000880 224.828781,6.966290 234.492920,7.008830 
	C250.386780,7.078793 260.977936,17.724377 260.988159,33.737988 
	C261.018677,81.559662 261.016663,129.381378 260.988586,177.203064 
	C260.980042,191.760941 249.673172,203.045868 234.977127,203.055466 
	C191.821518,203.083618 148.665848,203.015900 105.510208,203.002563 
	C82.349342,202.995407 59.188435,203.050613 36.027603,203.024414 
	C21.866673,203.008392 10.574791,193.097092 9.867640,178.975128 
	C9.068542,163.016953 9.095427,147.010056 9.041828,131.023438 
	C8.936244,99.531487 9.037704,68.038895 9.020370,36.546585 
	C9.015936,28.493134 10.495251,21.021147 16.347586,14.933414 
	C21.615511,9.453599 27.913950,6.978960 35.541389,6.989210 
	C91.860832,7.064890 148.180435,7.012753 205.000000,7.000823 
M84.832199,102.142998 
	C76.726173,112.047302 68.571640,121.912476 60.535480,131.873154 
	C56.761776,136.550583 57.121895,140.246674 61.378826,144.020416 
	C65.007904,147.237610 70.684319,147.277664 73.901985,143.461365 
	C84.401062,131.009033 94.733528,118.413391 104.960304,105.735924 
	C108.286682,101.612457 108.071365,97.183342 104.615723,93.006508 
	C94.654228,80.966064 84.788429,68.845062 74.691750,56.919357 
	C73.201126,55.158703 70.810120,53.668842 68.577011,53.134254 
	C64.386383,52.131050 61.205772,54.334991 59.016228,57.883038 
	C56.838543,61.411854 57.945496,64.668312 60.317619,67.516571 
	C67.977310,76.713730 75.853073,85.733604 83.372406,95.042450 
	C84.664467,96.642006 84.619385,99.321671 84.832199,102.142998 
M112.470436,168.573105 
	C120.288429,168.716507 128.106033,168.948151 135.924515,168.983566 
	C149.086517,169.043167 162.249466,169.033264 175.411255,168.940750 
	C181.388245,168.898758 185.832733,165.091431 185.791000,160.359070 
	C185.748718,155.563354 181.830093,152.289307 175.806976,152.019455 
	C175.474213,152.004547 175.140762,151.998505 174.807632,151.998672 
	C155.147003,152.009171 135.486343,152.005890 115.825760,152.043411 
	C111.302666,152.052032 106.564613,155.254120 105.983887,158.918015 
	C105.254761,163.518188 107.483154,166.552994 112.470436,168.573105 
z"/>
<path fill="#FDFDFD" opacity="1.000000" stroke="none" 
	d="
M608.004028,176.000214 
	C608.002075,170.002274 608.222351,164.492142 607.923096,159.010361 
	C607.706604,155.045319 608.986511,153.454193 613.020569,153.946945 
	C615.314331,154.227112 617.670288,153.997589 620.348755,153.997589 
	C620.776611,155.293915 621.199585,156.575272 621.781921,158.339645 
	C629.554077,152.581268 637.482788,153.265472 645.770569,155.818527 
	C648.110779,156.539429 650.978271,155.686478 653.582703,155.376846 
	C656.866699,154.986420 660.130188,153.991791 663.400269,154.001801 
	C671.437805,154.026459 677.554504,159.555313 677.855896,167.558868 
	C678.256775,178.206329 678.098633,188.881973 677.838745,199.537186 
	C677.809631,200.729675 675.742432,202.318253 674.290039,202.903885 
	C672.859924,203.480591 671.004456,202.927002 669.344666,203.024124 
	C664.830261,203.288269 663.001282,201.016159 663.022949,196.709442 
	C663.061462,189.045990 662.954163,181.381592 663.021606,173.718582 
	C663.058472,169.539108 661.543884,166.982422 656.989746,166.999252 
	C652.553589,167.015640 650.827332,169.248825 650.920166,173.610764 
	C651.093933,181.770950 650.847290,189.940933 651.067749,198.098923 
	C651.165649,201.720688 650.085876,203.476746 646.284058,203.059494 
	C644.966064,202.914841 643.616150,202.939087 642.289062,203.020508 
	C637.734802,203.299957 635.998291,200.930328 636.021362,196.660446 
	C636.062012,189.163605 636.049377,181.666046 635.992371,174.169281 
	C635.951965,168.846283 634.311707,166.972183 629.922485,167.005615 
	C625.343506,167.040497 623.096802,169.270233 623.031372,174.271912 
	C622.926758,182.267609 622.835205,190.270676 623.075073,198.260529 
	C623.189453,202.070786 621.747070,203.436096 618.128479,203.058136 
	C616.809021,202.920334 615.461914,202.950729 614.133057,203.016602 
	C609.882568,203.227295 608.040344,201.079010 608.042664,196.991882 
	C608.046570,190.161316 608.018433,183.330719 608.004028,176.000214 
z"/>
<path fill="#FCFCFC" opacity="1.000000" stroke="none" 
	d="
M479.147278,156.958023 
	C489.925995,152.399338 500.670776,153.473221 511.348694,155.358566 
	C512.797546,155.614380 514.876404,158.250763 514.883972,159.793610 
	C514.953918,174.091797 515.216553,188.431213 514.256287,202.680008 
	C513.358215,216.005829 505.667694,222.875641 492.238159,223.692337 
	C486.959259,224.013382 481.613190,223.401337 476.307922,223.056442 
	C472.735291,222.824173 470.942200,220.625870 470.911865,217.133118 
	C470.892090,214.848068 471.187469,212.560287 471.371216,209.836472 
	C475.116211,210.497391 478.339813,211.437073 481.590942,211.544678 
	C485.510529,211.674454 489.614868,211.688721 493.343597,210.670456 
	C497.556793,209.519882 499.701660,206.197052 498.732635,200.988022 
	C497.456970,201.330734 496.395294,201.487701 495.438507,201.892456 
	C483.026428,207.143295 470.714294,201.183029 468.615387,188.006454 
	C467.624512,181.786362 467.836761,174.865997 469.603546,168.882980 
	C470.916534,164.436859 475.609528,160.988876 479.147278,156.958023 
M498.946655,177.514282 
	C498.965057,175.359131 499.042755,173.202515 498.990204,171.049103 
	C498.855286,165.516785 496.625763,163.931946 491.371613,165.566299 
	C483.285065,168.081711 479.881500,179.223877 484.676453,187.016266 
	C487.349335,191.360046 491.252625,191.645187 495.505188,190.638458 
	C499.748444,189.633957 499.071106,186.087173 499.020477,182.960297 
	C498.996338,181.468536 498.970886,179.976807 498.946655,177.514282 
z"/>
<path fill="#FCFCFC" opacity="1.000000" stroke="none" 
	d="
M452.705933,122.687210 
	C453.761139,120.156364 454.543427,117.899925 455.686249,114.603615 
	C453.313843,115.138977 452.494629,115.182014 451.802704,115.501022 
	C439.156128,121.331444 427.138153,115.614487 424.576172,102.005745 
	C423.639587,97.030891 423.634338,91.636856 424.432800,86.629967 
	C426.097076,76.193306 433.143463,69.490547 444.033630,68.417969 
	C450.909119,67.740791 457.955109,68.598930 464.910461,69.008919 
	C468.577271,69.225060 470.239380,71.112305 470.145264,75.225136 
	C469.848145,88.206192 469.739716,101.203690 470.047211,114.183243 
	C470.394562,128.844818 464.030365,135.903336 448.250671,137.673050 
	C442.549988,138.312378 436.627258,137.412064 430.851776,136.788956 
	C427.028046,136.376419 425.491211,131.809433 427.049225,126.123154 
	C428.079132,122.364189 430.767883,124.498169 432.752441,124.870537 
	C439.519592,126.140274 446.245178,127.478050 452.705933,122.687210 
M439.070374,97.811844 
	C439.867767,99.423729 440.419678,101.229591 441.510254,102.609833 
	C444.379364,106.241066 448.559601,105.763916 451.943481,104.302963 
	C453.578217,103.597191 454.624664,100.213997 454.883270,97.924034 
	C455.345001,93.836021 454.953674,89.656906 455.016785,85.517372 
	C455.104431,79.767578 452.441071,77.773422 446.967407,79.611198 
	C442.649750,81.060829 440.037537,84.185539 439.249725,88.523895 
	C438.753540,91.256248 439.066376,94.135521 439.070374,97.811844 
z"/>
<path fill="#FCFCFC" opacity="1.000000" stroke="none" 
	d="
M343.833405,100.251488 
	C342.196014,102.203743 340.512024,103.903709 339.828278,105.939598 
	C335.547211,118.686768 335.210754,118.974678 321.040100,117.686913 
	C326.192169,101.708557 331.356140,85.803360 336.433655,69.870605 
	C337.741486,65.766754 338.872955,61.599953 339.910767,57.418716 
	C340.905975,53.409225 343.364929,51.550900 347.432465,51.673225 
	C351.754700,51.803211 356.134735,51.555042 360.373413,52.216255 
	C362.267303,52.511692 364.889740,54.281532 365.461914,55.966270 
	C372.072632,75.430954 378.379486,94.999382 384.636261,114.582024 
	C384.914276,115.452187 384.241852,117.347748 383.499329,117.707672 
	C377.738708,120.500046 370.162537,117.317207 368.118256,111.251953 
	C363.915894,98.783836 365.690826,100.101646 352.230042,100.014725 
	C349.570190,99.997551 346.909515,100.104691 343.833405,100.251488 
M360.547424,86.120323 
	C358.247986,79.121681 355.948547,72.123039 353.649109,65.124397 
	C353.203003,65.270447 352.756897,65.416504 352.310760,65.562553 
	C350.146088,72.766563 347.981384,79.970566 345.421844,88.488670 
	C351.230408,87.899193 356.021759,87.412956 360.547424,86.120323 
z"/>
<path fill="#FCFCFC" opacity="1.000000" stroke="none" 
	d="
M359.198853,154.538116 
	C367.034088,157.681030 371.614410,163.209671 372.162903,171.156952 
	C372.555908,176.851578 372.411804,182.835617 371.073273,188.341919 
	C368.695587,198.123016 360.790924,203.611542 350.487305,203.991364 
	C341.029572,204.340012 341.029602,204.339996 341.003815,213.529526 
	C340.978882,222.426163 338.298370,224.565018 329.427704,223.024246 
	C325.993408,222.427734 325.931580,220.028030 325.935120,217.435043 
	C325.957306,201.121979 325.976196,184.808914 325.996674,168.495850 
	C325.999817,165.998932 325.868622,163.492264 326.045959,161.007690 
	C326.248901,158.163574 325.414124,154.246857 329.508789,153.787659 
	C333.469086,153.343475 338.353790,152.001419 340.235382,158.465881 
	C345.846527,153.321564 352.066681,152.312210 359.198853,154.538116 
M350.892914,191.723007 
	C358.149994,187.541718 360.099182,174.978104 354.380371,168.800659 
	C351.738159,165.946518 348.605103,165.491943 344.847565,166.718185 
	C341.052979,167.956497 340.940765,170.688843 340.974823,173.807343 
	C341.027405,178.622635 341.055267,183.440643 340.950592,188.254395 
	C340.868011,192.051163 342.799774,193.336639 346.267151,192.859894 
	C347.574127,192.680176 348.849213,192.268707 350.892914,191.723007 
z"/>
<path fill="#FDFDFD" opacity="1.000000" stroke="none" 
	d="
M537.597168,68.933456 
	C539.942200,69.654434 541.853943,70.390266 544.512085,71.413391 
	C549.844666,68.312302 556.366028,66.507553 563.515564,68.904343 
	C570.122681,71.119278 573.693298,75.720161 573.841736,82.613960 
	C574.067444,93.094284 573.920593,103.582184 574.077332,114.064697 
	C574.123657,117.169701 572.787964,118.261063 569.876709,118.054466 
	C568.386475,117.948715 566.877991,117.954910 565.386108,118.046524 
	C560.892700,118.322464 559.027039,116.068382 559.032898,111.765350 
	C559.043457,103.943924 559.174133,96.115189 558.885681,88.303123 
	C558.643433,81.738205 554.637756,79.152794 548.837524,82.041130 
	C547.008179,82.952103 545.265747,85.946053 545.159058,88.070793 
	C544.742310,96.370888 544.788696,104.712242 545.090881,113.022697 
	C545.239136,117.099869 543.744629,118.144806 539.914795,118.149925 
	C529.609619,118.163712 529.011902,117.723717 529.001038,107.187866 
	C528.990051,96.536652 529.283264,85.874451 528.873718,75.238991 
	C528.679016,70.182373 530.076782,68.099113 535.172607,69.018417 
	C535.811340,69.133659 536.498962,68.978294 537.597168,68.933456 
z"/>
<path fill="#FDFDFD" opacity="1.000000" stroke="none" 
	d="
M687.464966,117.890839 
	C674.487366,118.124802 676.107300,118.661026 676.006897,107.011169 
	C675.953796,100.848297 676.082153,94.682838 675.960022,88.521896 
	C675.854736,83.211983 673.840576,81.046326 669.374573,81.010033 
	C664.512878,80.970520 661.210571,83.651237 661.082642,88.398880 
	C660.862854,96.555275 660.829407,104.727066 661.079956,112.881256 
	C661.199829,116.782326 660.036255,118.172958 656.006592,118.124756 
	C646.685608,118.013260 646.022278,117.576385 646.003540,108.339668 
	C645.982910,98.178535 646.030090,88.017212 645.989502,77.856201 
	C645.946228,67.004974 645.704773,69.052338 654.694763,69.114342 
	C656.567139,69.127258 658.432312,70.193619 661.033325,71.002235 
	C664.728394,70.108391 669.450317,68.218262 674.259033,67.962814 
	C683.508057,67.471489 690.152954,73.253899 690.665955,82.398613 
	C691.252747,92.860039 690.996948,103.376884 690.801819,113.863968 
	C690.776733,115.210335 688.919128,116.522621 687.464966,117.890839 
z"/>
<path fill="#FBFBFB" opacity="1.000000" stroke="none" 
	d="
M413.851135,180.853180 
	C413.948181,177.393692 413.722351,174.340805 414.249847,171.424164 
	C416.476624,159.111053 423.374451,154.129761 438.097504,153.888046 
	C450.287689,153.687912 458.135620,159.465668 460.560974,170.666321 
	C462.450745,179.393707 462.356689,188.157913 456.862671,195.539658 
	C454.378540,198.877411 450.291107,202.077621 446.369446,203.031647 
	C441.056976,204.324005 435.061890,204.208237 429.615479,203.246964 
	C419.722473,201.500885 414.812225,194.035980 413.851135,180.853180 
M430.433258,188.708618 
	C433.243744,190.048157 436.116547,192.522034 438.845215,192.372131 
	C441.070465,192.249878 444.605408,189.233337 444.959015,187.074188 
	C445.823822,181.793686 445.610321,176.218063 445.000946,170.855515 
	C444.580994,167.160095 441.294952,165.441742 437.670074,165.316803 
	C433.841858,165.184891 430.451691,166.690140 430.124207,170.826172 
	C429.673981,176.512009 430.054230,182.263580 430.433258,188.708618 
z"/>
<path fill="#FBFBFB" opacity="1.000000" stroke="none" 
	d="
M689.162354,180.207397 
	C695.787842,173.358566 704.348755,174.657333 712.538635,173.760849 
	C713.356567,169.786346 711.993164,166.600769 708.234985,166.123947 
	C703.578369,165.533112 698.753235,166.157288 694.009705,166.417145 
	C691.996704,166.527420 689.063538,168.131332 689.172058,164.587265 
	C689.271118,161.353333 686.621277,155.793686 691.750183,155.269547 
	C700.199890,154.406067 708.876892,154.869080 717.370972,155.682541 
	C722.284790,156.153122 726.331116,159.962555 726.710815,164.892853 
	C727.628662,176.809906 727.652039,188.798080 727.879700,200.760559 
	C727.893555,201.487854 726.488403,202.922287 725.837769,202.869339 
	C722.182129,202.571838 718.568665,201.746170 714.912903,201.466721 
	C713.295105,201.343063 711.379272,201.682846 709.996155,202.491714 
	C702.087280,207.117065 692.022522,204.731110 687.331787,196.928406 
	C683.793762,191.043091 684.216980,186.665909 689.162354,180.207397 
M712.025757,183.341629 
	C709.146423,183.632416 705.941772,183.257553 703.502686,184.449402 
	C701.892273,185.236282 701.382324,188.274994 700.379700,190.305511 
	C702.557312,191.355698 704.784302,193.367691 706.902466,193.259064 
	C711.540894,193.021118 713.268494,189.680481 712.025757,183.341629 
z"/>
<path fill="#FBFBFB" opacity="1.000000" stroke="none" 
	d="
M571.158508,204.038788 
	C558.915955,202.736389 553.264038,194.500122 556.987183,184.105042 
	C559.142883,178.086426 564.294189,176.169006 569.747864,175.079529 
	C574.105896,174.208939 578.618164,174.110275 583.427612,173.632690 
	C584.954895,169.752289 582.763489,167.022064 579.377441,166.380020 
	C575.103271,165.569565 570.568542,166.203018 566.152893,166.037643 
	C564.135986,165.962097 561.047241,166.154175 560.334351,165.028290 
	C558.343628,161.884521 560.127686,155.533890 563.023315,155.082153 
	C572.864929,153.546768 583.068359,151.736801 592.084045,157.497925 
	C594.911438,159.304657 597.492493,163.545242 597.791077,166.885925 
	C598.780518,177.953781 598.719177,189.118546 598.914551,200.248718 
	C598.929932,201.127670 597.753784,202.828674 597.239563,202.787735 
	C593.464905,202.487274 589.722595,201.801453 585.959045,201.324936 
	C584.780640,201.175751 583.518921,201.077454 582.380310,201.333649 
	C578.766907,202.146591 575.193604,203.137817 571.158508,204.038788 
M572.627686,184.996994 
	C570.038574,187.716782 570.925110,190.555450 573.394043,192.252808 
	C576.498108,194.386734 580.341309,194.409622 582.789612,191.131775 
	C583.964722,189.558578 584.295837,186.745010 583.807800,184.793625 
	C583.559204,183.799393 580.656738,182.979431 578.949158,182.970291 
	C577.055115,182.960159 575.155579,183.964676 572.627686,184.996994 
z"/>
<path fill="#FBFBFB" opacity="1.000000" stroke="none" 
	d="
M512.835632,98.006523 
	C506.370850,98.006554 500.385773,98.006554 494.388916,98.006554 
	C495.078033,106.639885 501.960419,108.694031 519.655396,105.521118 
	C519.655396,109.151413 519.655396,112.721138 519.655396,116.683495 
	C510.052185,118.271370 500.443420,119.454483 490.823181,116.159462 
	C485.231781,114.244339 480.973022,110.684097 479.863861,104.930023 
	C478.716827,98.979584 477.550720,92.597267 478.517487,86.755470 
	C481.582703,68.234131 496.819672,65.249855 510.117065,69.268837 
	C518.836609,71.904221 525.659058,87.532120 521.541443,95.227074 
	C520.545715,97.087990 516.148438,97.128746 512.835632,98.006523 
M501.485687,88.969574 
	C503.249054,88.969574 505.012421,88.969574 506.816803,88.969574 
	C507.037659,87.255394 507.324921,86.115479 507.306122,84.980652 
	C507.230042,80.390251 504.447296,77.521057 500.346252,77.686134 
	C497.161133,77.814346 492.548401,83.048920 493.203888,86.598793 
	C494.058136,91.224815 498.105164,88.098053 501.485687,88.969574 
z"/>
<path fill="#FBFBFB" opacity="1.000000" stroke="none" 
	d="
M718.386536,117.877258 
	C715.633911,117.982430 713.289673,118.238617 710.991882,118.015968 
	C703.497375,117.289780 698.780762,112.990730 698.058472,106.471703 
	C697.168396,98.438705 700.171753,92.764587 707.633911,90.531204 
	C713.297119,88.836258 719.320740,88.345474 725.525330,87.259102 
	C725.384155,82.838417 723.258240,79.844292 718.178528,79.827820 
	C714.390869,79.815529 710.525330,79.857803 706.835693,80.588806 
	C703.385193,81.272430 701.913757,80.820045 701.898804,76.955811 
	C701.871155,69.797562 702.301147,68.707283 709.523743,68.326912 
	C715.773315,67.997787 722.189575,68.032516 728.326477,69.094803 
	C735.520203,70.340042 739.875183,76.463936 739.976257,83.858887 
	C740.098999,92.841011 740.111938,101.827660 739.954468,110.808525 
	C739.913696,113.131233 739.193909,117.387695 738.554626,117.432190 
	C734.947388,117.683281 731.262695,116.969673 727.623718,116.449272 
	C727.118530,116.377022 726.720520,115.554939 726.281555,115.089241 
	C723.729614,116.018967 721.272888,116.913979 718.386536,117.877258 
M722.358398,106.887871 
	C727.390808,104.988815 726.083374,101.124519 725.625244,97.356331 
	C720.900574,96.585716 716.494263,96.374138 713.557373,100.397308 
	C712.815186,101.414032 713.246582,104.739716 714.090881,105.180595 
	C716.314331,106.341599 719.061279,106.499992 722.358398,106.887871 
z"/>
<path fill="#FCFCFC" opacity="1.000000" stroke="none" 
	d="
M615.125183,74.038879 
	C615.901978,79.649635 613.428772,81.202217 608.556458,81.044868 
	C601.857605,80.828529 601.879944,81.056496 601.999695,87.566254 
	C602.057861,90.728325 601.998108,93.893089 601.961060,97.056274 
	C601.878601,104.092110 605.010254,106.836983 611.852051,105.682739 
	C612.786926,105.525032 613.708679,105.289070 614.662170,105.083817 
	C615.946045,118.186760 615.946045,118.186752 603.577332,117.950974 
	C592.450134,117.738853 587.037170,112.306999 587.001099,101.276184 
	C586.983154,95.779678 586.972229,90.282410 587.046204,84.786667 
	C587.081421,82.175240 586.341736,80.516800 583.329956,80.999924 
	C579.601624,81.598015 578.636292,79.734627 578.952820,76.378372 
	C579.166260,74.114944 578.993530,71.815102 578.993530,69.626976 
	C587.129517,68.367416 587.812256,68.411224 588.430298,58.778271 
	C588.839905,52.395256 591.440063,51.259708 596.715637,51.998932 
	C598.166992,52.202297 599.671021,52.029846 601.924194,52.029846 
	C601.924194,55.400803 601.979126,58.483055 601.913391,61.562737 
	C601.748108,69.303268 601.881836,69.541901 609.585693,69.025131 
	C613.071350,68.791313 615.657898,69.164925 615.125183,74.038879 
z"/>
<path fill="#FEFEFE" opacity="1.000000" stroke="none" 
	d="
M421.080200,71.365463 
	C421.135773,74.962692 421.135773,78.103043 421.135773,81.999542 
	C418.611053,81.999542 416.529816,81.952812 414.451324,82.008293 
	C408.161072,82.176186 406.054596,84.246994 406.013275,90.444702 
	C405.961121,98.265999 405.917114,106.089264 406.043945,113.908852 
	C406.091095,116.816353 405.264923,118.008438 402.102509,118.072914 
	C389.994812,118.319725 390.003082,118.427620 389.998474,106.171921 
	C389.994446,95.354897 390.052795,84.536911 389.917969,73.721405 
	C389.873566,70.155518 390.874084,68.326073 394.798492,69.058807 
	C398.037567,69.663582 401.320282,70.034698 404.241699,71.527840 
	C408.117554,70.247055 411.948425,68.797722 415.885498,67.746155 
	C418.407990,67.072426 420.532043,67.873428 421.080200,71.365463 
z"/>
<path fill="#FDFDFD" opacity="1.000000" stroke="none" 
	d="
M380.026581,174.000839 
	C379.998596,168.669785 380.133698,163.830368 379.892456,159.009781 
	C379.696289,155.090118 381.129364,153.471970 385.117828,153.932556 
	C387.413025,154.197617 389.763885,153.980637 392.414185,153.980637 
	C392.839813,155.356476 393.240662,156.652374 393.522217,157.562515 
	C397.961823,156.280014 401.964050,154.871185 406.081055,154.012970 
	C409.494171,153.301498 411.577057,154.713867 411.035278,158.668671 
	C410.855988,159.977539 410.874725,161.343948 411.017334,162.660828 
	C411.452393,166.677902 410.535522,168.412125 405.816223,167.412979 
	C399.906555,166.161774 395.285614,170.430313 395.076630,176.874023 
	C394.849915,183.864258 394.815918,190.874435 395.079895,197.861465 
	C395.225372,201.713196 394.144531,203.176300 390.075043,203.158752 
	C380.705780,203.118347 380.019073,202.674942 380.001953,193.493683 
	C379.990143,187.162704 380.017273,180.831650 380.026581,174.000839 
z"/>
<path fill="#FDFDFD" opacity="1.000000" stroke="none" 
	d="
M553.548340,154.312515 
	C554.275879,158.383072 554.734924,162.248795 554.771606,166.118530 
	C554.776245,166.603668 552.507874,167.622940 551.367676,167.524673 
	C542.872986,166.792526 539.076599,170.129852 539.012207,178.768188 
	C538.962585,185.414993 538.870239,192.066223 539.059143,198.708023 
	C539.151733,201.964111 537.972778,203.313629 534.747070,203.075653 
	C532.928528,202.941498 531.093201,203.003922 529.265991,203.023895 
	C525.992249,203.059677 524.189148,201.321472 524.156677,198.196640 
	C524.014954,184.572342 523.948730,170.945892 524.087891,157.322586 
	C524.099487,156.189178 525.719421,154.282211 526.813721,154.105179 
	C529.561523,153.660660 532.493591,153.687790 535.231506,154.186295 
	C536.293152,154.379562 537.031006,156.351425 537.481812,156.942932 
	C542.765381,155.987289 547.957825,155.048096 553.548340,154.312515 
z"/>
<path fill="#FEFEFE" opacity="1.000000" stroke="none" 
	d="
M636.000977,105.942589 
	C636.000427,107.760262 636.007507,109.088333 635.997986,110.416283 
	C635.945068,117.833679 635.780090,117.999245 628.507080,117.999878 
	C621.201416,118.000519 621.022034,117.847252 621.006531,110.435379 
	C620.981506,98.483299 621.173828,86.527092 620.901245,74.581131 
	C620.802124,70.238701 622.047913,68.745789 626.491699,68.867767 
	C635.386414,69.111931 635.975891,69.460159 635.995361,78.560608 
	C636.014587,87.524681 636.000488,96.488815 636.000977,105.942589 
z"/>
<path fill="#F9F9F9" opacity="1.000000" stroke="none" 
	d="
M630.659607,62.949837 
	C622.293640,62.344589 620.080078,60.679111 619.839172,55.142223 
	C619.645447,50.690346 621.939880,47.691483 626.085083,46.978745 
	C631.765137,46.002094 636.352051,48.048695 637.753479,52.184986 
	C639.193665,56.435814 637.471558,60.088551 632.946289,62.303970 
	C632.359497,62.591217 631.695312,62.720436 630.659607,62.949837 
z"/>
<path fill="#030303" opacity="1.000000" stroke="none" 
	d="
M85.012085,101.822693 
	C84.619385,99.321671 84.664467,96.642006 83.372406,95.042450 
	C75.853073,85.733604 67.977310,76.713730 60.317619,67.516571 
	C57.945496,64.668312 56.838543,61.411854 59.016228,57.883038 
	C61.205772,54.334991 64.386383,52.131050 68.577011,53.134254 
	C70.810120,53.668842 73.201126,55.158703 74.691750,56.919357 
	C84.788429,68.845062 94.654228,80.966064 104.615723,93.006508 
	C108.071365,97.183342 108.286682,101.612457 104.960304,105.735924 
	C94.733528,118.413391 84.401062,131.009033 73.901985,143.461365 
	C70.684319,147.277664 65.007904,147.237610 61.378826,144.020416 
	C57.121895,140.246674 56.761776,136.550583 60.535480,131.873154 
	C68.571640,121.912476 76.726173,112.047302 85.012085,101.822693 
z"/>
<path fill="#020202" opacity="1.000000" stroke="none" 
	d="
M112.090652,168.404053 
	C107.483154,166.552994 105.254761,163.518188 105.983887,158.918015 
	C106.564613,155.254120 111.302666,152.052032 115.825760,152.043411 
	C135.486343,152.005890 155.147003,152.009171 174.807632,151.998672 
	C175.140762,151.998505 175.474213,152.004547 175.806976,152.019455 
	C181.830093,152.289307 185.748718,155.563354 185.791000,160.359070 
	C185.832733,165.091431 181.388245,168.898758 175.411255,168.940750 
	C162.249466,169.033264 149.086517,169.043167 135.924515,168.983566 
	C128.106033,168.948151 120.288429,168.716507 112.090652,168.404053 
z"/>
<path fill="#050505" opacity="1.000000" stroke="none" 
	d="
M498.946350,177.999664 
	C498.970886,179.976807 498.996338,181.468536 499.020477,182.960297 
	C499.071106,186.087173 499.748444,189.633957 495.505188,190.638458 
	C491.252625,191.645187 487.349335,191.360046 484.676453,187.016266 
	C479.881500,179.223877 483.285065,168.081711 491.371613,165.566299 
	C496.625763,163.931946 498.855286,165.516785 498.990204,171.049103 
	C499.042755,173.202515 498.965057,175.359131 498.946350,177.999664 
z"/>
<path fill="#050505" opacity="1.000000" stroke="none" 
	d="
M439.043335,97.380363 
	C439.066376,94.135521 438.753540,91.256248 439.249725,88.523895 
	C440.037537,84.185539 442.649750,81.060829 446.967407,79.611198 
	C452.441071,77.773422 455.104431,79.767578 455.016785,85.517372 
	C454.953674,89.656906 455.345001,93.836021 454.883270,97.924034 
	C454.624664,100.213997 453.578217,103.597191 451.943481,104.302963 
	C448.559601,105.763916 444.379364,106.241066 441.510254,102.609833 
	C440.419678,101.229591 439.867767,99.423729 439.043335,97.380363 
z"/>
<path fill="#080808" opacity="1.000000" stroke="none" 
	d="
M360.680267,86.523521 
	C356.021759,87.412956 351.230408,87.899193 345.421844,88.488670 
	C347.981384,79.970566 350.146088,72.766563 352.310760,65.562553 
	C352.756897,65.416504 353.203003,65.270447 353.649109,65.124397 
	C355.948547,72.123039 358.247986,79.121681 360.680267,86.523521 
z"/>
<path fill="#040404" opacity="1.000000" stroke="none" 
	d="
M350.515869,191.842957 
	C348.849213,192.268707 347.574127,192.680176 346.267151,192.859894 
	C342.799774,193.336639 340.868011,192.051163 340.950592,188.254395 
	C341.055267,183.440643 341.027405,178.622635 340.974823,173.807343 
	C340.940765,170.688843 341.052979,167.956497 344.847565,166.718185 
	C348.605103,165.491943 351.738159,165.946518 354.380371,168.800659 
	C360.099182,174.978104 358.149994,187.541718 350.515869,191.842957 
z"/>
<path fill="#050505" opacity="1.000000" stroke="none" 
	d="
M430.255951,188.347809 
	C430.054230,182.263580 429.673981,176.512009 430.124207,170.826172 
	C430.451691,166.690140 433.841858,165.184891 437.670074,165.316803 
	C441.294952,165.441742 444.580994,167.160095 445.000946,170.855515 
	C445.610321,176.218063 445.823822,181.793686 444.959015,187.074188 
	C444.605408,189.233337 441.070465,192.249878 438.845215,192.372131 
	C436.116547,192.522034 433.243744,190.048157 430.255951,188.347809 
z"/>
<path fill="#0C0C0C" opacity="1.000000" stroke="none" 
	d="
M712.355225,183.614197 
	C713.268494,189.680481 711.540894,193.021118 706.902466,193.259064 
	C704.784302,193.367691 702.557312,191.355698 700.379639,190.305511 
	C701.382324,188.274994 701.892273,185.236282 703.502686,184.449402 
	C705.941772,183.257553 709.146423,183.632416 712.355225,183.614197 
z"/>
<path fill="#0C0C0C" opacity="1.000000" stroke="none" 
	d="
M572.943115,184.762177 
	C575.155579,183.964676 577.055115,182.960159 578.949158,182.970291 
	C580.656738,182.979431 583.559204,183.799393 583.807800,184.793625 
	C584.295837,186.745010 583.964722,189.558578 582.789612,191.131775 
	C580.341309,194.409622 576.498108,194.386734 573.394043,192.252808 
	C570.925110,190.555450 570.038574,187.716782 572.943115,184.762177 
z"/>
<path fill="#050505" opacity="1.000000" stroke="none" 
	d="
M501.021820,88.983871 
	C498.105164,88.098053 494.058136,91.224815 493.203888,86.598793 
	C492.548401,83.048920 497.161133,77.814346 500.346252,77.686134 
	C504.447296,77.521057 507.230042,80.390251 507.306122,84.980652 
	C507.324921,86.115479 507.037659,87.255394 506.816803,88.969574 
	C505.012421,88.969574 503.249054,88.969574 501.021820,88.983871 
z"/>
<path fill="#0B0B0B" opacity="1.000000" stroke="none" 
	d="
M721.979065,106.972778 
	C719.061279,106.499992 716.314331,106.341599 714.090881,105.180595 
	C713.246582,104.739716 712.815186,101.414032 713.557373,100.397308 
	C716.494263,96.374138 720.900574,96.585716 725.625244,97.356331 
	C726.083374,101.124519 727.390808,104.988815 721.979065,106.972778 
z"/>
</svg>